<svg width="179" height="26" viewBox="0 0 179 26" fill="none" xmlns="http://www.w3.org/2000/svg">
<path d="M0.522727 25V1.72727H9.70455C11.4697 1.72727 12.9735 2.06439 14.2159 2.73864C15.4583 3.4053 16.4053 4.33333 17.0568 5.52273C17.7159 6.70454 18.0455 8.06818 18.0455 9.61364C18.0455 11.1591 17.7121 12.5227 17.0455 13.7045C16.3788 14.8864 15.4129 15.8068 14.1477 16.4659C12.8902 17.125 11.3674 17.4545 9.57955 17.4545H3.72727V13.5114H8.78409C9.73106 13.5114 10.5114 13.3485 11.125 13.0227C11.7462 12.6894 12.2083 12.2311 12.5114 11.6477C12.822 11.0568 12.9773 10.3788 12.9773 9.61364C12.9773 8.84091 12.822 8.16667 12.5114 7.59091C12.2083 7.00757 11.7462 6.55682 11.125 6.23864C10.5038 5.91288 9.71591 5.75 8.76136 5.75H5.44318V25H0.522727ZM25.9915 14.9091V25H21.1506V1.72727H25.8551V10.625H26.0597C26.4536 9.5947 27.09 8.78788 27.9688 8.20454C28.8475 7.61364 29.9498 7.31818 31.2756 7.31818C32.4877 7.31818 33.5445 7.58333 34.446 8.11364C35.3551 8.63636 36.0597 9.39015 36.5597 10.375C37.0672 11.3523 37.3172 12.5227 37.3097 13.8864V25H32.4688V14.75C32.4763 13.6742 32.2036 12.8371 31.6506 12.2386C31.1051 11.6402 30.34 11.3409 29.3551 11.3409C28.696 11.3409 28.1127 11.4811 27.6051 11.7614C27.1051 12.0417 26.7112 12.4508 26.4233 12.9886C26.143 13.5189 25.9991 14.1591 25.9915 14.9091ZM41.1193 25V7.54545H45.9602V25H41.1193ZM43.5511 5.29545C42.8314 5.29545 42.214 5.05682 41.6989 4.57954C41.1913 4.0947 40.9375 3.51515 40.9375 2.84091C40.9375 2.17424 41.1913 1.60227 41.6989 1.125C42.214 0.640151 42.8314 0.397726 43.5511 0.397726C44.2708 0.397726 44.8845 0.640151 45.392 1.125C45.9072 1.60227 46.1648 2.17424 46.1648 2.84091C46.1648 3.51515 45.9072 4.0947 45.392 4.57954C44.8845 5.05682 44.2708 5.29545 43.5511 5.29545ZM64.3608 12.5227L59.929 12.7955C59.8532 12.4167 59.6903 12.0758 59.4403 11.7727C59.1903 11.4621 58.8608 11.2159 58.4517 11.0341C58.0502 10.8447 57.5691 10.75 57.0085 10.75C56.2585 10.75 55.6259 10.9091 55.1108 11.2273C54.5956 11.5379 54.3381 11.9545 54.3381 12.4773C54.3381 12.8939 54.5047 13.2462 54.8381 13.5341C55.1714 13.822 55.7434 14.053 56.554 14.2273L59.7131 14.8636C61.41 15.2121 62.6752 15.7727 63.5085 16.5455C64.3419 17.3182 64.7585 18.3333 64.7585 19.5909C64.7585 20.7348 64.4214 21.7386 63.7472 22.6023C63.0805 23.4659 62.1638 24.1402 60.9972 24.625C59.8381 25.1023 58.5009 25.3409 56.9858 25.3409C54.6752 25.3409 52.8343 24.8598 51.4631 23.8977C50.0994 22.928 49.3002 21.6098 49.0653 19.9432L53.8267 19.6932C53.9706 20.3977 54.3191 20.9356 54.8722 21.3068C55.4252 21.6705 56.1335 21.8523 56.9972 21.8523C57.8456 21.8523 58.5275 21.6894 59.0426 21.3636C59.5653 21.0303 59.8305 20.6023 59.8381 20.0795C59.8305 19.6402 59.6449 19.2803 59.2812 19C58.9176 18.7121 58.357 18.4924 57.5994 18.3409L54.5767 17.7386C52.8722 17.3977 51.6032 16.8068 50.7699 15.9659C49.9441 15.125 49.5312 14.053 49.5312 12.75C49.5312 11.6288 49.8343 10.6629 50.4403 9.85227C51.054 9.04167 51.9138 8.41667 53.0199 7.97727C54.1335 7.53788 55.4366 7.31818 56.929 7.31818C59.1335 7.31818 60.8684 7.78409 62.1335 8.71591C63.4063 9.64773 64.1487 10.9167 64.3608 12.5227ZM72.6477 14.9091V25H67.8068V1.72727H72.5114V10.625H72.7159C73.1098 9.5947 73.7462 8.78788 74.625 8.20454C75.5038 7.61364 76.6061 7.31818 77.9318 7.31818C79.1439 7.31818 80.2008 7.58333 81.1023 8.11364C82.0114 8.63636 82.7159 9.39015 83.2159 10.375C83.7235 11.3523 83.9735 12.5227 83.9659 13.8864V25H79.125V14.75C79.1326 13.6742 78.8598 12.8371 78.3068 12.2386C77.7614 11.6402 76.9962 11.3409 76.0114 11.3409C75.3523 11.3409 74.7689 11.4811 74.2614 11.7614C73.7614 12.0417 73.3674 12.4508 73.0795 12.9886C72.7992 13.5189 72.6553 14.1591 72.6477 14.9091ZM102.298 12.5227L97.8665 12.7955C97.7907 12.4167 97.6278 12.0758 97.3778 11.7727C97.1278 11.4621 96.7983 11.2159 96.3892 11.0341C95.9877 10.8447 95.5066 10.75 94.946 10.75C94.196 10.75 93.5634 10.9091 93.0483 11.2273C92.5331 11.5379 92.2756 11.9545 92.2756 12.4773C92.2756 12.8939 92.4422 13.2462 92.7756 13.5341C93.1089 13.822 93.6809 14.053 94.4915 14.2273L97.6506 14.8636C99.3475 15.2121 100.613 15.7727 101.446 16.5455C102.279 17.3182 102.696 18.3333 102.696 19.5909C102.696 20.7348 102.359 21.7386 101.685 22.6023C101.018 23.4659 100.101 24.1402 98.9347 24.625C97.7756 25.1023 96.4384 25.3409 94.9233 25.3409C92.6127 25.3409 90.7718 24.8598 89.4006 23.8977C88.0369 22.928 87.2377 21.6098 87.0028 19.9432L91.7642 19.6932C91.9081 20.3977 92.2566 20.9356 92.8097 21.3068C93.3627 21.6705 94.071 21.8523 94.9347 21.8523C95.7831 21.8523 96.465 21.6894 96.9801 21.3636C97.5028 21.0303 97.768 20.6023 97.7756 20.0795C97.768 19.6402 97.5824 19.2803 97.2188 19C96.8551 18.7121 96.2945 18.4924 95.5369 18.3409L92.5142 17.7386C90.8097 17.3977 89.5407 16.8068 88.7074 15.9659C87.8816 15.125 87.4688 14.053 87.4688 12.75C87.4688 11.6288 87.7718 10.6629 88.3778 9.85227C88.9915 9.04167 89.8513 8.41667 90.9574 7.97727C92.071 7.53788 93.3741 7.31818 94.8665 7.31818C97.071 7.31818 98.8059 7.78409 100.071 8.71591C101.344 9.64773 102.086 10.9167 102.298 12.5227ZM113.699 25.3409C111.903 25.3409 110.358 24.9773 109.062 24.25C107.775 23.5152 106.782 22.4773 106.085 21.1364C105.388 19.7879 105.04 18.1932 105.04 16.3523C105.04 14.5568 105.388 12.9811 106.085 11.625C106.782 10.2689 107.763 9.21212 109.028 8.45454C110.301 7.69697 111.794 7.31818 113.506 7.31818C114.657 7.31818 115.729 7.50379 116.722 7.875C117.722 8.23864 118.593 8.78788 119.335 9.52273C120.085 10.2576 120.669 11.1818 121.085 12.2955C121.502 13.4015 121.71 14.697 121.71 16.1818V17.5114H106.972V14.5114H117.153C117.153 13.8144 117.002 13.197 116.699 12.6591C116.396 12.1212 115.975 11.7008 115.438 11.3977C114.907 11.0871 114.29 10.9318 113.585 10.9318C112.85 10.9318 112.199 11.1023 111.631 11.4432C111.07 11.7765 110.631 12.2273 110.312 12.7955C109.994 13.3561 109.831 13.9811 109.824 14.6705V17.5227C109.824 18.3864 109.983 19.1326 110.301 19.7614C110.627 20.3902 111.085 20.875 111.676 21.2159C112.267 21.5568 112.968 21.7273 113.778 21.7273C114.316 21.7273 114.809 21.6515 115.256 21.5C115.703 21.3485 116.085 21.1212 116.403 20.8182C116.722 20.5152 116.964 20.1439 117.131 19.7045L121.608 20C121.381 21.0758 120.915 22.0152 120.21 22.8182C119.513 23.6136 118.612 24.2348 117.506 24.6818C116.407 25.1212 115.138 25.3409 113.699 25.3409ZM129.71 14.9091V25H124.869V7.54545H129.483V10.625H129.688C130.074 9.60985 130.722 8.80682 131.631 8.21591C132.54 7.61742 133.642 7.31818 134.938 7.31818C136.15 7.31818 137.206 7.58333 138.108 8.11364C139.009 8.64394 139.71 9.40151 140.21 10.3864C140.71 11.3636 140.96 12.5303 140.96 13.8864V25H136.119V14.75C136.127 13.6818 135.854 12.8485 135.301 12.25C134.748 11.6439 133.987 11.3409 133.017 11.3409C132.366 11.3409 131.79 11.4811 131.29 11.7614C130.797 12.0417 130.411 12.4508 130.131 12.9886C129.858 13.5189 129.718 14.1591 129.71 14.9091ZM159.298 12.5227L154.866 12.7955C154.791 12.4167 154.628 12.0758 154.378 11.7727C154.128 11.4621 153.798 11.2159 153.389 11.0341C152.988 10.8447 152.507 10.75 151.946 10.75C151.196 10.75 150.563 10.9091 150.048 11.2273C149.533 11.5379 149.276 11.9545 149.276 12.4773C149.276 12.8939 149.442 13.2462 149.776 13.5341C150.109 13.822 150.681 14.053 151.491 14.2273L154.651 14.8636C156.348 15.2121 157.613 15.7727 158.446 16.5455C159.279 17.3182 159.696 18.3333 159.696 19.5909C159.696 20.7348 159.359 21.7386 158.685 22.6023C158.018 23.4659 157.101 24.1402 155.935 24.625C154.776 25.1023 153.438 25.3409 151.923 25.3409C149.613 25.3409 147.772 24.8598 146.401 23.8977C145.037 22.928 144.238 21.6098 144.003 19.9432L148.764 19.6932C148.908 20.3977 149.257 20.9356 149.81 21.3068C150.363 21.6705 151.071 21.8523 151.935 21.8523C152.783 21.8523 153.465 21.6894 153.98 21.3636C154.503 21.0303 154.768 20.6023 154.776 20.0795C154.768 19.6402 154.582 19.2803 154.219 19C153.855 18.7121 153.295 18.4924 152.537 18.3409L149.514 17.7386C147.81 17.3977 146.541 16.8068 145.707 15.9659C144.882 15.125 144.469 14.053 144.469 12.75C144.469 11.6288 144.772 10.6629 145.378 9.85227C145.991 9.04167 146.851 8.41667 147.957 7.97727C149.071 7.53788 150.374 7.31818 151.866 7.31818C154.071 7.31818 155.806 7.78409 157.071 8.71591C158.344 9.64773 159.086 10.9167 159.298 12.5227ZM170.699 25.3409C168.903 25.3409 167.358 24.9773 166.062 24.25C164.775 23.5152 163.782 22.4773 163.085 21.1364C162.388 19.7879 162.04 18.1932 162.04 16.3523C162.04 14.5568 162.388 12.9811 163.085 11.625C163.782 10.2689 164.763 9.21212 166.028 8.45454C167.301 7.69697 168.794 7.31818 170.506 7.31818C171.657 7.31818 172.729 7.50379 173.722 7.875C174.722 8.23864 175.593 8.78788 176.335 9.52273C177.085 10.2576 177.669 11.1818 178.085 12.2955C178.502 13.4015 178.71 14.697 178.71 16.1818V17.5114H163.972V14.5114H174.153C174.153 13.8144 174.002 13.197 173.699 12.6591C173.396 12.1212 172.975 11.7008 172.438 11.3977C171.907 11.0871 171.29 10.9318 170.585 10.9318C169.85 10.9318 169.199 11.1023 168.631 11.4432C168.07 11.7765 167.631 12.2273 167.312 12.7955C166.994 13.3561 166.831 13.9811 166.824 14.6705V17.5227C166.824 18.3864 166.983 19.1326 167.301 19.7614C167.627 20.3902 168.085 20.875 168.676 21.2159C169.267 21.5568 169.968 21.7273 170.778 21.7273C171.316 21.7273 171.809 21.6515 172.256 21.5C172.703 21.3485 173.085 21.1212 173.403 20.8182C173.722 20.5152 173.964 20.1439 174.131 19.7045L178.608 20C178.381 21.0758 177.915 22.0152 177.21 22.8182C176.513 23.6136 175.612 24.2348 174.506 24.6818C173.407 25.1212 172.138 25.3409 170.699 25.3409Z" fill="#F4F4F4"/>
</svg>
