<svg xmlns="http://www.w3.org/2000/svg" width="51" height="50" viewBox="0 0 51 50" fill="none">
  <path d="M5.16285 50C3.78785 50 2.61035 49.3875 1.63035 48.1625C0.650346 46.9375 0.161179 45.4667 0.162846 43.75V6.25C0.162846 4.53125 0.652846 3.05938 1.63285 1.83438C2.61285 0.60938 3.78951 -0.00207803 5.16285 5.3056e-06H45.1628C46.5378 5.3056e-06 47.7153 0.612505 48.6953 1.8375C49.6753 3.0625 50.1645 4.53334 50.1628 6.25V43.75C50.1628 45.4687 49.6728 46.9406 48.6928 48.1656C47.7128 49.3906 46.5362 50.0021 45.1628 50H5.16285ZM5.16285 43.75H45.1628V12.5H5.16285V43.75ZM22.5378 39.2187L13.6628 28.125L17.2878 23.5938L22.5378 30.1562L33.0378 17.0313L36.6628 21.5625L22.5378 39.2187Z" fill="#04A6BC"/>
</svg>