<svg xmlns="http://www.w3.org/2000/svg" width="61" height="30" viewBox="0 0 61 30" fill="none">
  <path d="M6.53716 15C6.53716 9.87 10.7072 5.7 15.8372 5.7H27.8372V0H15.8372C7.55716 0 0.837158 6.72 0.837158 15C0.837158 23.28 7.55716 30 15.8372 30H27.8372V24.3H15.8372C10.7072 24.3 6.53716 20.13 6.53716 15ZM18.8372 18H42.8372V12H18.8372V18ZM45.8372 0H33.8372V5.7H45.8372C50.9672 5.7 55.1372 9.87 55.1372 15C55.1372 20.13 50.9672 24.3 45.8372 24.3H33.8372V30H45.8372C54.1172 30 60.8372 23.28 60.8372 15C60.8372 6.72 54.1172 0 45.8372 0Z" fill="#04A6BC"/>
</svg>