<svg xmlns="http://www.w3.org/2000/svg" width="51" height="51" viewBox="0 0 51 51" fill="none">
  <path d="M50.3446 21.3342L39.1228 0.684449C39.0118 0.484268 38.8493 0.317434 38.6521 0.201267C38.4549 0.0851005 38.2302 0.0238368 38.0013 0.0238368C37.7724 0.0238368 37.5477 0.0851005 37.3505 0.201267C37.1533 0.317434 36.9908 0.484268 36.8798 0.684449L25.658 21.3342C25.5511 21.53 25.497 21.7502 25.501 21.9733C25.505 22.1963 25.567 22.4145 25.6808 22.6063C25.7947 22.7982 25.9565 22.9571 26.1504 23.0675C26.3443 23.1779 26.5635 23.2359 26.7866 23.2359H49.216C49.4389 23.2356 49.6579 23.1774 49.8516 23.0668C50.0452 22.9563 50.2068 22.7974 50.3204 22.6056C50.4341 22.4138 50.4959 22.1957 50.4998 21.9728C50.5037 21.7499 50.4496 21.5298 50.3428 21.3342H50.3446ZM36.662 7.16471H39.3406V14.3075H36.662V7.16471ZM38.0013 19.6645C37.6481 19.6645 37.3028 19.5598 37.0092 19.3636C36.7155 19.1674 36.4866 18.8885 36.3514 18.5622C36.2163 18.2359 36.1809 17.8769 36.2498 17.5305C36.3187 17.1841 36.4888 16.8659 36.7386 16.6162C36.9883 16.3664 37.3065 16.1964 37.6529 16.1275C37.9993 16.0586 38.3584 16.0939 38.6847 16.2291C39.011 16.3642 39.2899 16.5931 39.4861 16.8868C39.6823 17.1804 39.7871 17.5257 39.7871 17.8788C39.7871 18.3524 39.5989 18.8066 39.264 19.1415C38.9291 19.4764 38.4749 19.6645 38.0013 19.6645ZM43.3586 30.3787V26.8073H27.2866V46.4499C27.288 47.3966 27.6648 48.3042 28.3343 48.9736C29.0038 49.6431 29.9114 50.0198 30.8582 50.0212H36.2155V46.4499H30.8582V30.3787H43.3586ZM18.3578 50.0212H13.0004V46.4499H18.3578V24.2466L12.0808 20.4806L13.9201 17.4199L20.1953 21.1842C20.7229 21.5029 21.1595 21.9521 21.4632 22.4884C21.7669 23.0248 21.9274 23.6303 21.9293 24.2466V46.4499C21.9284 47.3968 21.5518 48.3046 20.8822 48.9742C20.2126 49.6437 19.3047 50.0203 18.3578 50.0212Z" fill="#04A6BC"/>
  <path d="M30.2582 5.38974L31.9725 2.23443C29.4726 0.759376 26.6176 -0.0055893 23.7151 0.0219589C21.2103 0.0292522 18.7512 0.692719 16.5827 1.94626C14.4142 3.1998 12.612 4.99965 11.3557 7.1665L11.2147 7.16471C8.37295 7.16471 5.64764 8.29352 3.63825 10.3028C1.62886 12.3121 0.5 15.0373 0.5 17.8788C0.5 20.7204 1.62886 23.4456 3.63825 25.4549C5.64764 27.4642 8.37295 28.593 11.2147 28.593V25.0216C9.32018 25.0216 7.50331 24.2691 6.16372 22.9295C4.82413 21.59 4.07155 19.7732 4.07155 17.8788C4.07155 15.9845 4.82413 14.1677 6.16372 12.8282C7.50331 11.4886 9.32018 10.7361 11.2147 10.7361C11.4464 10.7433 11.6774 10.7671 11.9057 10.8075L13.4469 11.0093L13.9987 9.81825C14.859 7.9644 16.2299 6.39419 17.9508 5.29168C19.6717 4.18916 21.6713 3.60003 23.7151 3.59334C26.0214 3.56726 28.2885 4.18971 30.2582 5.38974Z" fill="#04A6BC"/>
</svg>